<svg xmlns="http://www.w3.org/2000/svg" id="svg3336" height="162" width="1320" preserveAspectRatio="xMidYMid"><defs id="defs3338"><style id="style3340">.cls-2 { font-size: 200px; } .cls-3 { fill: #fff; font-size: 200px; font-family: &amp;quot;Blanka Regular&amp;quot;; }</style></defs><g id="text3342" style="line-height:125%;-inkscape-font-specification:'Blanka, Normal';text-align:start" font-size="200" font-family="Blanka" fill="#fff"><path id="path3367" style="line-height:125%;-inkscape-font-specification:'Blanka, Normal';text-align:start" d="M79 48.6c0 17.6-23.6 17.6-23.6 17.6h-24V29.6h24s23.6-.2 23.6 19zm30.6-1.8C109.6-.2 55.4 1 55.4 1H3.2C2 1 1 2 1 2.8V96h54.4s25.8-1.2 25.8 17.6c0 15.4-15.8 18.2-25.8 18.2H31.6V161h23.8c10.8 0 56.4-2 56.4-46.6 0 0 1-24.8-24.4-33.4 12.2-5 22.2-15.6 22.2-34.2z"/><path id="path3369" style="line-height:125%;-inkscape-font-specification:'Blanka, Normal';text-align:start" d="M235.406 1h-26c-1.4 0-2.2 1-2.2 1.8v104.8c0 16.2-14.8 24-29.8 24-14.8 0-28-8.4-29.8-24.2V30h-30.2v77.6c0 33 27 53.4 60 53.4 34 0 60-19.6 60-53.4V2.8c0-.8-1-1.8-2-1.8z"/><path id="path3371" style="line-height:125%;-inkscape-font-specification:'Blanka, Normal';text-align:start" d="M329.978 131.2h-86.4v28c0 .8 1 1.8 2.2 1.8h84.2c1.4 0 2.2-1 2.2-1.8v-26c0-1-.8-2-2.2-2zm-55.8-30.6V2.8c0-.8-.8-1.8-2-1.8h-26.4c-1.2 0-2.2 1-2.2 1.8v97.8h30.6z"/><path id="path3373" style="line-height:125%;-inkscape-font-specification:'Blanka, Normal';text-align:start" d="M464.538 158l-64.2-75.6 63.6-78.4c1.4-1.4.4-3-1.8-3h-32.6c-.4 0-1.6.4-1.8.6l-60.2 74V2.8c0-.8-.8-1.8-2-1.8h-26.4c-1.2 0-2.2 1-2.2 1.8v148.4s39-44.2 43-48.4l46.6 57.6c.2.2 1.4.6 1.8.6h34.4c2 0 3-1.4 1.8-3z"/><path id="path3375" style="line-height:125%;-inkscape-font-specification:'Blanka, Normal';text-align:start" d="M562.503 31.6l-16.8 23.4-38-53.4c-.4-.4-1.4-.6-2-.6h-31.6c-2.2 0-3 1.6-2 3 19.4 27.2 39.2 54.4 58.4 81.8v73.4c0 .8.8 1.8 2.2 1.8h26.2c1.2 0 2.2-1 2.2-1.8V85.8l38.6-54.2h-37.2z"/><path id="path3377" style="line-height:125%;-inkscape-font-specification:'Blanka, Normal';text-align:start" d="M734.078 48.6c0 17.6-23.6 17.6-23.6 17.6h-24V29.6h24s23.6-.2 23.6 19zm30.6-1.8c0-47-54.2-45.8-54.2-45.8h-52.2c-1.2 0-2.2 1-2.2 1.8V96h54.4s25.8-1.2 25.8 17.6c0 15.4-15.8 18.2-25.8 18.2h-23.8V161h23.8c10.8 0 56.4-2 56.4-46.6 0 0 1-24.8-24.4-33.4 12.2-5 22.2-15.6 22.2-34.2z"/><path id="path3379" style="line-height:125%;-inkscape-font-specification:'Blanka, Normal';text-align:start" d="M881.684 158.4c-10-22.2-20.8-44.2-30.8-66.8 16-5.8 29.4-18.6 29.4-43 0-47.2-45-47.6-54-47.6h-51.8c-1 0-2 1-2 1.8V30h53.8c4.8 0 23.6 1 23.6 18.6s-17 18.4-23.6 18.4h-53.8v92.2c0 .8 1 1.8 2 1.8h26.2c1.2 0 2.2-1 2.2-1.8V96.4h17.2l29.2 63.4c.2.6 1.4 1.2 2 1.2h28.6c1.6 0 2.4-1.2 1.8-2.6z"/><path id="path3381" style="line-height:125%;-inkscape-font-specification:'Blanka, Normal';text-align:start" d="M952.528 133.6h-16V1h-30.6v132.6h-16.4c-1.2 0-2.2.8-2.2 1.8v23.8c0 .8 1 1.8 2.2 1.8h63c1.4 0 2.2-1 2.2-1.8v-23.8c0-1-.8-1.8-2.2-1.8z"/><path id="path3383" style="line-height:125%;-inkscape-font-specification:'Blanka, Normal';text-align:start" d="M1049.43 131.6c-19.4.8-60.6-1.2-60.6-50.6 0-38 25.8-52.6 60.6-50.8v35.4h30.6V2.8c0-.8-.8-1.8-2.2-1.8h-26c-39.2 0-93.8 9-93.8 80 0 68.4 54 80 93.8 80h26c1.4 0 2.2-1 2.2-1.8v-27.6h-30.6z"/><path id="path3385" style="line-height:125%;-inkscape-font-specification:'Blanka, Normal';text-align:start" d="M1213.756 158l-64.2-75.6 63.6-78.4c1.4-1.4.4-3-1.8-3h-32.6c-.4 0-1.6.4-1.8.6l-60.2 74V2.8c0-.8-.8-1.8-2-1.8h-26.4c-1.2 0-2.2 1-2.2 1.8v148.4s39-44.2 43-48.4l46.6 57.6c.2.2 1.4.6 1.8.6h34.4c2 0 3-1.4 1.8-3z"/><path id="path3387" style="line-height:125%;-inkscape-font-specification:'Blanka, Normal';text-align:start" d="M1294.322 72.2c-11.4-5.4-22.6-5.4-23.6-5.4-10.2 0-20-6-20-17.6 0-12.8 9-19.4 20-19.4 10.4 0 19.2 5.4 19.6 16.8 0 .6 1 1.6 2.2 1.6h25c1.4 0 2.4-1 2.2-1.6-.4-27.2-21.6-45.6-49-45.6-25.6 0-49.8 18.2-49.8 48.2 0 18.6 9.4 32.8 26 40.4 11.6 5.4 22.4 5.4 23.8 5.4 9 .4 20 7.6 20 19.4 0 10.6-9.4 17.8-20 17.8h-.2V161h.2c25.6 0 49.6-16.6 49.6-46.6 0-18.8-9.2-34.4-26-42.2z"/></g></svg>