<!-- 
  
   THIS IS AN SVG FILE
   CREATED ESPECIALLY FOR 
   BULKY BRICKS INC.

   LICENSE - BULKY-BRICKS-INC

 ____   __ __  _      __  _  __ __      ____   ____   ____     __  __  _   _____
|    \ |  |  || |    |  |/ ]|  |  |    |    \ |    \ |    |   /  ]|  |/ ] / ___/
|  o  )|  |  || |    |  ' / |  |  |    |  o  )|  D  ) |  |   /  / |  ' / (   \_ 
|     ||  |  || |___ |    \ |  ~  |    |     ||    /  |  |  /  /  |    \  \__  |
|  O  ||  :  ||     ||     ||___, |    |  O  ||    \  |  | /   \_ |     | /  \ |
|     ||     ||     ||  .  ||     |    |     ||  .  \ |  | \     ||  .  | \    |
|_____| \__,_||_____||__|\_||____/     |_____||__|\_||____| \____||__|\_|  \___|
                                                                                
 ____   __ __  _      __  _  __ __      ____   ____   ____     __  __  _   _____
|    \ |  |  || |    |  |/ ]|  |  |    |    \ |    \ |    |   /  ]|  |/ ] / ___/
|  o  )|  |  || |    |  ' / |  |  |    |  o  )|  D  ) |  |   /  / |  ' / (   \_ 
|     ||  |  || |___ |    \ |  ~  |    |     ||    /  |  |  /  /  |    \  \__  |
|  O  ||  :  ||     ||     ||___, |    |  O  ||    \  |  | /   \_ |     | /  \ |
|     ||     ||     ||  .  ||     |    |     ||  .  \ |  | \     ||  .  | \    |
|_____| \__,_||_____||__|\_||____/     |_____||__|\_||____| \____||__|\_|  \___|
                                                                                
 ____   __ __  _      __  _  __ __      ____   ____   ____     __  __  _   _____
|    \ |  |  || |    |  |/ ]|  |  |    |    \ |    \ |    |   /  ]|  |/ ] / ___/
|  o  )|  |  || |    |  ' / |  |  |    |  o  )|  D  ) |  |   /  / |  ' / (   \_ 
|     ||  |  || |___ |    \ |  ~  |    |     ||    /  |  |  /  /  |    \  \__  |
|  O  ||  :  ||     ||     ||___, |    |  O  ||    \  |  | /   \_ |     | /  \ |
|     ||     ||     ||  .  ||     |    |     ||  .  \ |  | \     ||  .  | \    |
|_____| \__,_||_____||__|\_||____/     |_____||__|\_||____| \____||__|\_|  \___|
                                                                                
 ____   __ __  _      __  _  __ __      ____   ____   ____     __  __  _   _____
|    \ |  |  || |    |  |/ ]|  |  |    |    \ |    \ |    |   /  ]|  |/ ] / ___/
|  o  )|  |  || |    |  ' / |  |  |    |  o  )|  D  ) |  |   /  / |  ' / (   \_ 
|     ||  |  || |___ |    \ |  ~  |    |     ||    /  |  |  /  /  |    \  \__  |
|  O  ||  :  ||     ||     ||___, |    |  O  ||    \  |  | /   \_ |     | /  \ |
|     ||     ||     ||  .  ||     |    |     ||  .  \ |  | \     ||  .  | \    |
|_____| \__,_||_____||__|\_||____/     |_____||__|\_||____| \____||__|\_|  \___|
                                                                                
 ____   __ __  _      __  _  __ __      ____   ____   ____     __  __  _   _____
|    \ |  |  || |    |  |/ ]|  |  |    |    \ |    \ |    |   /  ]|  |/ ] / ___/
|  o  )|  |  || |    |  ' / |  |  |    |  o  )|  D  ) |  |   /  / |  ' / (   \_ 
|     ||  |  || |___ |    \ |  ~  |    |     ||    /  |  |  /  /  |    \  \__  |
|  O  ||  :  ||     ||     ||___, |    |  O  ||    \  |  | /   \_ |     | /  \ |
|     ||     ||     ||  .  ||     |    |     ||  .  \ |  | \     ||  .  | \    |
|_____| \__,_||_____||__|\_||____/     |_____||__|\_||____| \____||__|\_|  \___|
                                                                                
 ____   __ __  _      __  _  __ __      ____   ____   ____     __  __  _   _____
|    \ |  |  || |    |  |/ ]|  |  |    |    \ |    \ |    |   /  ]|  |/ ] / ___/
|  o  )|  |  || |    |  ' / |  |  |    |  o  )|  D  ) |  |   /  / |  ' / (   \_ 
|     ||  |  || |___ |    \ |  ~  |    |     ||    /  |  |  /  /  |    \  \__  |
|  O  ||  :  ||     ||     ||___, |    |  O  ||    \  |  | /   \_ |     | /  \ |
|     ||     ||     ||  .  ||     |    |     ||  .  \ |  | \     ||  .  | \    |
|_____| \__,_||_____||__|\_||____/     |_____||__|\_||____| \____||__|\_|  \___|
                                                                                
 ____   __ __  _      __  _  __ __      ____   ____   ____     __  __  _   _____
|    \ |  |  || |    |  |/ ]|  |  |    |    \ |    \ |    |   /  ]|  |/ ] / ___/
|  o  )|  |  || |    |  ' / |  |  |    |  o  )|  D  ) |  |   /  / |  ' / (   \_ 
|     ||  |  || |___ |    \ |  ~  |    |     ||    /  |  |  /  /  |    \  \__  |
|  O  ||  :  ||     ||     ||___, |    |  O  ||    \  |  | /   \_ |     | /  \ |
|     ||     ||     ||  .  ||     |    |     ||  .  \ |  | \     ||  .  | \    |
|_____| \__,_||_____||__|\_||____/     |_____||__|\_||____| \____||__|\_|  \___|
                                                                                
 ____   __ __  _      __  _  __ __      ____   ____   ____     __  __  _   _____
|    \ |  |  || |    |  |/ ]|  |  |    |    \ |    \ |    |   /  ]|  |/ ] / ___/
|  o  )|  |  || |    |  ' / |  |  |    |  o  )|  D  ) |  |   /  / |  ' / (   \_ 
|     ||  |  || |___ |    \ |  ~  |    |     ||    /  |  |  /  /  |    \  \__  |
|  O  ||  :  ||     ||     ||___, |    |  O  ||    \  |  | /   \_ |     | /  \ |
|     ||     ||     ||  .  ||     |    |     ||  .  \ |  | \     ||  .  | \    |
|_____| \__,_||_____||__|\_||____/     |_____||__|\_||____| \____||__|\_|  \___|
                                                                                

-->
<?xml version="1.0" encoding="UTF-8" standalone="no"?>
<svg
   xmlns:dc="http://purl.org/dc/elements/1.1/"
   xmlns:cc="http://creativecommons.org/ns#"
   xmlns:rdf="http://www.w3.org/1999/02/22-rdf-syntax-ns#"
   xmlns:svg="http://www.w3.org/2000/svg"
   xmlns="http://www.w3.org/2000/svg"
   version="1.1"
   id="svg3336"
   viewBox="0 0 1320 162"
   height="162"
   width="1320"
   preserveAspectRatio="xMidYMid">
  <metadata
     id="metadata3348">
    <rdf:RDF>
      <cc:Work
         rdf:about="">
        <dc:format>image/svg+xml</dc:format>
        <dc:type
           rdf:resource="http://purl.org/dc/dcmitype/StillImage" />
        <dc:title></dc:title>
      </cc:Work>
    </rdf:RDF>
  </metadata>
  <defs
     id="defs3338">
    <style
       id="style3340">

      .cls-2 {
        font-size: 200px;
      }

      .cls-3 {
        fill: #fff;
        font-size: 200px;
        font-family: &quot;Blanka Regular&quot;;
      }
    </style>
  </defs>
  <g
     id="text3342"
     style="font-style:normal;font-variant:normal;font-weight:normal;font-stretch:normal;font-size:200px;line-height:125%;font-family:Blanka;-inkscape-font-specification:'Blanka, Normal';text-align:start;writing-mode:lr-tb;text-anchor:start">
    <path
       id="path3367"
       style="font-style:normal;font-variant:normal;font-weight:normal;font-stretch:normal;font-size:200px;line-height:125%;font-family:Blanka;-inkscape-font-specification:'Blanka, Normal';text-align:start;writing-mode:lr-tb;text-anchor:start;fill:#ffffff"
       d="M 79,48.6 C 79,66.2 55.4,66.2 55.4,66.2 l -24,0 0,-36.6 24,0 c 0,0 23.6,-0.2 23.6,19 z m 30.6,-1.8 C 109.6,-0.2 55.4,1 55.4,1 L 3.2,1 C 2,1 1,2 1,2.8 l 0,93.2 30.4,0 24,0 c 0,0 25.8,-1.2 25.8,17.6 0,15.4 -15.8,18.2 -25.8,18.2 l -23.8,0 0,29.2 23.8,0 c 10.8,0 56.4,-2 56.4,-46.6 0,0 1,-24.8 -24.4,-33.4 12.2,-5 22.2,-15.6 22.2,-34.2 z" />
    <path
       id="path3369"
       style="font-style:normal;font-variant:normal;font-weight:normal;font-stretch:normal;font-size:200px;line-height:125%;font-family:Blanka;-inkscape-font-specification:'Blanka, Normal';text-align:start;writing-mode:lr-tb;text-anchor:start;fill:#ffffff"
       d="m 235.40625,1 -26,0 c -1.4,0 -2.2,1 -2.2,1.8 l 0,104.8 c 0,16.2 -14.8,24 -29.8,24 -14.8,0 -28,-8.4 -29.8,-24.2 l 0,-77.4 -30.2,0 0,77.6 c 0,33 27,53.4 60,53.4 34,0 60,-19.6 60,-53.4 l 0,-104.8 c 0,-0.8 -1,-1.8 -2,-1.8 z" />
    <path
       id="path3371"
       style="font-style:normal;font-variant:normal;font-weight:normal;font-stretch:normal;font-size:200px;line-height:125%;font-family:Blanka;-inkscape-font-specification:'Blanka, Normal';text-align:start;writing-mode:lr-tb;text-anchor:start;fill:#ffffff"
       d="m 329.97812,131.2 -55.79999,0 -30.60001,0 0,28 c 0,0.8 1,1.8 2.2,1.8 l 84.2,0 c 1.4,0 2.20001,-1 2.20001,-1.8 l 0,-26 c 0,-1 -0.80001,-2 -2.20001,-2 z m -55.79999,-30.6 0,-97.8 c 0,-0.8 -0.80001,-1.8 -2,-1.8 l -26.40001,0 c -1.2,0 -2.2,1 -2.2,1.8 l 0,97.8 30.60001,0 z" />
    <path
       id="path3373"
       style="font-style:normal;font-variant:normal;font-weight:normal;font-stretch:normal;font-size:200px;line-height:125%;font-family:Blanka;-inkscape-font-specification:'Blanka, Normal';text-align:start;writing-mode:lr-tb;text-anchor:start;fill:#ffffff"
       d="m 464.5375,158 -64.2,-75.6 63.6,-78.4 c 1.4,-1.4 0.4,-3 -1.8,-3 l -32.6,0 c -0.4,0 -1.6,0.4 -1.8,0.6 l -60.2,74 0,-72.8 c 0,-0.8 -0.8,-1.8 -2,-1.8 l -26.4,0 c -1.2,0 -2.2,1 -2.2,1.8 l 0,148.4 0,0 c 0,0 39,-44.2 43,-48.4 l 46.6,57.6 c 0.2,0.2 1.4,0.6 1.8,0.6 l 34.4,0 c 2,0 3,-1.4 1.8,-3 z" />
    <path
       id="path3375"
       style="font-style:normal;font-variant:normal;font-weight:normal;font-stretch:normal;font-size:200px;line-height:125%;font-family:Blanka;-inkscape-font-specification:'Blanka, Normal';text-align:start;writing-mode:lr-tb;text-anchor:start;fill:#ffffff"
       d="m 562.50312,31.6 -16.8,23.4 -38,-53.4 c -0.39999,-0.4 -1.39999,-0.6 -2,-0.6 l -31.6,0 c -2.2,0 -3,1.6 -2,3 19.4,27.2 39.20001,54.4 58.4,81.8 l 0,73.4 c 0,0.8 0.80001,1.8 2.2,1.8 l 26.20001,0 c 1.19999,0 2.19999,-1 2.19999,-1.8 l 0,-73.4 38.6,-54.2 -37.2,0 z" />
    <path
       id="path3377"
       style="font-style:normal;font-variant:normal;font-weight:normal;font-stretch:normal;font-size:200px;line-height:125%;font-family:Blanka;-inkscape-font-specification:'Blanka, Normal';text-align:start;writing-mode:lr-tb;text-anchor:start;fill:#ffffff"
       d="m 734.07812,48.6 c 0,17.6 -23.6,17.6 -23.6,17.6 l -24,0 0,-36.6 24,0 c 0,0 23.6,-0.2 23.6,19 z m 30.60001,-1.8 c 0,-47 -54.20001,-45.8 -54.20001,-45.8 l -52.19999,0 c -1.20001,0 -2.20001,1 -2.20001,1.8 l 0,93.2 30.4,0 24,0 c 0,0 25.80001,-1.2 25.80001,17.6 0,15.4 -15.80001,18.2 -25.80001,18.2 l -23.79999,0 0,29.2 23.79999,0 c 10.80001,0 56.4,-2 56.4,-46.6 0,0 1,-24.8 -24.4,-33.4 12.20001,-5 22.20001,-15.6 22.20001,-34.2 z" />
    <path
       id="path3379"
       style="font-style:normal;font-variant:normal;font-weight:normal;font-stretch:normal;font-size:200px;line-height:125%;font-family:Blanka;-inkscape-font-specification:'Blanka, Normal';text-align:start;writing-mode:lr-tb;text-anchor:start;fill:#ffffff"
       d="m 881.68438,158.4 c -10,-22.2 -20.80001,-44.2 -30.80001,-66.8 16,-5.8 29.4,-18.6 29.4,-43 0,-47.2 -45,-47.6 -54,-47.6 l -51.8,0 c -1,0 -2,1 -2,1.8 l 0,27.2 30.4,0 23.4,0 c 4.80001,0 23.6,1 23.6,18.6 0,17.6 -17,18.4 -23.6,18.4 l -23.4,0 -30.4,0 0,92.2 c 0,0.8 1,1.8 2,1.8 l 26.20001,0 c 1.19999,0 2.19999,-1 2.19999,-1.8 l 0,-62.8 17.20001,0 29.19999,63.4 c 0.2,0.6 1.40001,1.2 2,1.2 l 28.6,0 c 1.6,0 2.4,-1.2 1.80001,-2.6 z" />
    <path
       id="path3381"
       style="font-style:normal;font-variant:normal;font-weight:normal;font-stretch:normal;font-size:200px;line-height:125%;font-family:Blanka;-inkscape-font-specification:'Blanka, Normal';text-align:start;writing-mode:lr-tb;text-anchor:start;fill:#ffffff"
       d="m 952.52813,133.6 -16,0 0,-56.6 0,-48.6 0,-27.4 -30.6,0 0,27.4 0,48.6 0,56.6 -16.4,0 c -1.20001,0 -2.20001,0.8 -2.20001,1.8 l 0,23.8 c 0,0.8 1,1.8 2.20001,1.8 l 63,0 c 1.4,0 2.19999,-1 2.19999,-1.8 l 0,-23.8 c 0,-1 -0.79999,-1.8 -2.19999,-1.8 z" />
    <path
       id="path3383"
       style="font-style:normal;font-variant:normal;font-weight:normal;font-stretch:normal;font-size:200px;line-height:125%;font-family:Blanka;-inkscape-font-specification:'Blanka, Normal';text-align:start;writing-mode:lr-tb;text-anchor:start;fill:#ffffff"
       d="m 1049.4313,131.6 0,0 c -19.4,0.8 -60.60005,-1.2 -60.60005,-50.6 0,-38 25.80005,-52.6 60.60005,-50.8 l 0,35.4 30.6,0 0,-62.8 c 0,-0.8 -0.8,-1.8 -2.2,-1.8 l -26,0 c -39.2,0 -93.80005,9 -93.80005,80 0,68.4 53.99995,80 93.80005,80 l 26,0 c 1.4,0 2.2,-1 2.2,-1.8 l 0,-27.6 -30.6,0 z" />
    <path
       id="path3385"
       style="font-style:normal;font-variant:normal;font-weight:normal;font-stretch:normal;font-size:200px;line-height:125%;font-family:Blanka;-inkscape-font-specification:'Blanka, Normal';text-align:start;writing-mode:lr-tb;text-anchor:start;fill:#ffffff"
       d="m 1213.7563,158 -64.2,-75.6 63.6,-78.4 c 1.4,-1.4 0.4,-3 -1.8,-3 l -32.6,0 c -0.4,0 -1.6,0.4 -1.8,0.6 l -60.2,74 0,-72.8 c 0,-0.8 -0.8,-1.8 -2,-1.8 l -26.4,0 c -1.2,0 -2.2,1 -2.2,1.8 l 0,148.4 0,0 c 0,0 39,-44.2 43,-48.4 l 46.6,57.6 c 0.2,0.2 1.4,0.6 1.8,0.6 l 34.4,0 c 2,0 3,-1.4 1.8,-3 z" />
    <path
       id="path3387"
       style="font-style:normal;font-variant:normal;font-weight:normal;font-stretch:normal;font-size:200px;line-height:125%;font-family:Blanka;-inkscape-font-specification:'Blanka, Normal';text-align:start;writing-mode:lr-tb;text-anchor:start;fill:#ffffff"
       d="m 1294.3219,72.2 c -11.4,-5.4 -22.6,-5.4 -23.6,-5.4 -10.2,0 -20,-6 -20,-17.6 0,-12.8 9,-19.4 20,-19.4 10.4,0 19.2,5.4 19.6,16.8 0,0.6 1,1.6 2.2,1.6 l 25,0 c 1.4,0 2.4,-1 2.2,-1.6 -0.4,-27.2 -21.6,-45.6 -49,-45.6 -25.6,0 -49.8,18.2 -49.8,48.2 0,18.6 9.4,32.8 26,40.4 11.6,5.4 22.4,5.4 23.8,5.4 9,0.4 20,7.6 20,19.4 0,10.6 -9.4,17.8 -20,17.8 0,0 0,0 -0.2,0 l 0,28.8 c 0.2,0 0.2,0 0.2,0 25.6,0 49.6,-16.6 49.6,-46.6 0,-18.8 -9.2,-34.4 -26,-42.2 z" />
  </g>
</svg>
